<?xml version="1.0" encoding="utf-8"?>
<!DOCTYPE svg PUBLIC "-//W3C//DTD SVG 1.1//EN" "http://www.w3.org/Graphics/SVG/1.1/DTD/svg11.dtd">
<svg version="1.1" id="Layer_1" xmlns="http://www.w3.org/2000/svg" xmlns:xlink="http://www.w3.org/1999/xlink" x="0px" y="0px"
	 viewBox="0 0 770.885 176.797" xml:space="preserve">
<g>
	<path fill="#FFFFFF" d="M8.32,176.797H0L72.019-4.42h1.04l72.019,181.217h-8.58l-14.04-35.619H22.36L8.32,176.797z M72.539,14.82
		L25.22,133.897h94.378L72.539,14.82z"/>
	<path fill="#FFFFFF" d="M188.497,16.9v159.897h-7.54V-4.42h1.04l123.758,164.317V0h7.539v181.217h-1.039L188.497,16.9z"/>
	<path fill="#FFFFFF" d="M365.813,0h8.32v176.797h-8.32V0z"/>
	<path fill="#FFFFFF" d="M426.651-3.64h1.04l80.599,105.818L588.887-3.64h1.04v180.437h-7.8V18.2l-73.838,95.939h-0.78L434.451,18.2
		v158.597h-7.8V-3.64z"/>
	<path fill="#FFFFFF" d="M634.128,176.797h-8.32L697.827-4.42h1.04l72.019,181.217h-8.58l-14.039-35.619H648.167L634.128,176.797z
		 M698.347,14.82l-47.319,119.078h94.378L698.347,14.82z"/>
</g>
</svg>
