<?xml version="1.0" encoding="utf-8"?>
<!DOCTYPE svg PUBLIC "-//W3C//DTD SVG 1.1//EN" "http://www.w3.org/Graphics/SVG/1.1/DTD/svg11.dtd">
<svg version="1.1" xmlns="http://www.w3.org/2000/svg" xmlns:xlink="http://www.w3.org/1999/xlink" x="0px" y="0px"
	 viewBox="0 0 1043.859 373.153" xml:space="preserve">
<g>
	<path fill="#FFFFFF" d="M112.877,0L29.446,127.884L0,228.683l30.742,93.209l166.893-191.973L112.877,0z M111.377,214.155
		l-73.503-84.548l73.503-112.666V214.155z M114.377,213.495V16.941l73.257,112.289L114.377,213.495z M36.428,132.515l74.175,85.322
		l-55.028,63.297L8.747,227.268L36.428,132.515z M9.904,233.172l43.683,50.248l-19.654,22.607L9.904,233.172z"/>
	<path fill="#FFFFFF" d="M208.095,136.484L39.587,330.314l86.964,42.839l83.812-41.286l29.064-88.123L208.095,136.484z
		 M230.714,242.441L128.051,360.532V240.749l76.471-87.963L230.714,242.441z M181.11,304.072l21.667,22.614l-72.28,35.605
		L181.11,304.072z M125.051,244.2v119.296l-72.614-35.77L125.051,244.2z M204.49,324.137l-21.403-22.339l46.357-53.324
		L204.49,324.137z"/>
</g>
<g>
	<path fill="#FFFFFF" d="M281.293,276.406h-8.32l72.019-181.217h1.04l72.019,181.217h-8.58l-14.04-35.619H295.333L281.293,276.406z
		 M345.512,114.429l-47.319,119.078h94.378L345.512,114.429z"/>
	<path fill="#FFFFFF" d="M461.47,116.509v159.897h-7.54V95.189h1.04l123.758,164.317V99.609h7.539v181.217h-1.039L461.47,116.509z"
		/>
	<path fill="#FFFFFF" d="M638.787,99.609h8.32v176.797h-8.32V99.609z"/>
	<path fill="#FFFFFF" d="M699.625,95.969h1.04l80.599,105.818l80.598-105.818h1.04v180.437h-7.8V117.809l-73.838,95.939h-0.78
		l-73.059-95.939v158.597h-7.8V95.969z"/>
	<path fill="#FFFFFF" d="M907.102,276.406h-8.32L970.8,95.189h1.04l72.019,181.217h-8.58l-14.039-35.619H921.141L907.102,276.406z
		 M971.321,114.429l-47.319,119.078h94.378L971.321,114.429z"/>
</g>
</svg>
