<?xml version="1.0" encoding="utf-8"?>
<!DOCTYPE svg PUBLIC "-//W3C//DTD SVG 1.1//EN" "http://www.w3.org/Graphics/SVG/1.1/DTD/svg11.dtd">
<svg version="1.1" xmlns="http://www.w3.org/2000/svg" xmlns:xlink="http://www.w3.org/1999/xlink" x="0px" y="0px"
	 width="298.7px" height="268.22px" viewBox="0 0 298.7 268.22" xml:space="preserve">
<path fill="#C92D4F" d="M63.519,0L0,54.586L149.35,268.22L298.7,54.586L235.18,0 M151.777,8l51.455,43.261H95.468L146.924,8H151.777
	z M91.128,59.261h116.443l-57.35,193.75l-0.871,1.246l-0.871-1.246L91.128,59.261z M143.053,245.249L13.029,59.261h74.97
	L143.053,245.249z M210.7,59.261h74.97L155.647,245.249L210.7,59.261z M282.555,51.261h-68.762l19.362-42.454L282.555,51.261z
	 M230.224,8l-19.729,43.261h-2.602L156.438,8h58.852H230.224z M142.262,8L90.806,51.261h-2.602L68.475,8h14.934H142.262z
	 M65.545,8.807l19.362,42.454H16.144L65.545,8.807z"/>
</svg>
