<?xml version="1.0" encoding="utf-8"?>
<!DOCTYPE svg PUBLIC "-//W3C//DTD SVG 1.1//EN" "http://www.w3.org/Graphics/SVG/1.1/DTD/svg11.dtd">
<svg version="1.1" id="Layer_1" xmlns="http://www.w3.org/2000/svg" xmlns:xlink="http://www.w3.org/1999/xlink" x="0px" y="0px"
	 viewBox="0 0 2048 2048" xml:space="preserve">
<g>
	<path fill="#3286C6" d="M581.334,230.744c-14.289-8.25-32.731-3.309-40.981,10.981L104.861,996.019
		c-8.25,14.289-1.5,25.981,15,25.981h1801.968c16.5,0,18.309-6.75,4.019-15L581.334,230.744z"/>
	<path fill="#3286C6" d="M119.861,1026c-16.5,0-23.25,11.691-15,25.981l435.338,754.027c8.25,14.289,21.75,14.289,30,0
		l435.338-754.027c8.25-14.289,1.5-25.981-15-25.981H119.861z"/>
	<path fill="#3286C6" d="M1055.155,1026c-16.5,0-36.75,11.691-45,25.981l-436.493,756.027c-8.25,14.289-1.5,25.981,15,25.981
		h872.985c16.5,0,36.75-11.691,45-25.981l436.492-756.027c8.25-14.289,1.5-25.981-15-25.981H1055.155z"/>
	<path fill="#3286C6" d="M1931.313,1005.536c14.289,8.25,19.231,3.309,10.981-10.981l-435.647-754.563
		c-8.25-14.289-28.5-25.981-45-25.981H590.353c-16.5,0-18.309,6.75-4.019,15L1931.313,1005.536z"/>
</g>
<g>
	<g>
		<path fill="#FFFFFF" d="M584.66,1165.17c-14.831,7.231-26.966-0.353-26.966-16.853v-38.724c0-16.5,12.204-35.772,27.12-42.826
			l270.691-128.015c14.916-7.054,14.929-18.623,0.028-25.71L584.786,784.285c-14.901-7.086-27.092-26.384-27.092-42.884v-37.866
			c0-16.5,12.13-24.074,26.955-16.831l376.613,183.988c14.825,7.243,26.955,26.669,26.955,43.169v24.559
			c0,16.5-12.135,35.916-26.966,43.147L584.66,1165.17z"/>
	</g>
	<g>
		<path fill="#FFFFFF" d="M1044.447,1347.389c0-16.5,13.5-30,30-30h437.055c16.5,0,30,13.5,30,30v30.139c0,16.5-13.5,30-30,30
			h-437.055c-16.5,0-30-13.5-30-30V1347.389z"/>
	</g>
</g>
</svg>
