<?xml version="1.0" encoding="utf-8"?>
<!DOCTYPE svg PUBLIC "-//W3C//DTD SVG 1.1//EN" "http://www.w3.org/Graphics/SVG/1.1/DTD/svg11.dtd">
<svg version="1.1" id="Layer_1" xmlns="http://www.w3.org/2000/svg" xmlns:xlink="http://www.w3.org/1999/xlink" x="0px" y="0px"
	 viewBox="0 0 2048 2048" xml:space="preserve">
<g>
	<path fill="none" stroke="#21B08A" stroke-width="30" stroke-miterlimit="10" d="M581.334,230.744
		c-14.289-8.25-32.731-3.309-40.981,10.981L104.861,996.019c-8.25,14.289-1.5,25.981,15,25.981h1801.968
		c16.5,0,18.309-6.75,4.019-15L581.334,230.744z"/>
	<path fill="none" stroke="#21B08A" stroke-width="30" stroke-miterlimit="10" d="M119.861,1026c-16.5,0-23.25,11.691-15,25.981
		l435.338,754.027c8.25,14.289,21.75,14.289,30,0l435.338-754.027c8.25-14.289,1.5-25.981-15-25.981H119.861z"/>
	<path fill="#21B08A" d="M1055.155,1026c-16.5,0-36.75,11.691-45,25.981l-436.493,756.027c-8.25,14.289-1.5,25.981,15,25.981
		h872.985c16.5,0,36.75-11.691,45-25.981l436.492-756.027c8.25-14.289,1.5-25.981-15-25.981H1055.155z"/>
	<path fill="#21B08A" d="M1931.313,1005.536c14.289,8.25,19.231,3.309,10.981-10.981l-435.647-754.563
		c-8.25-14.289-28.5-25.981-45-25.981H590.353c-16.5,0-18.309,6.75-4.019,15L1931.313,1005.536z"/>
</g>
</svg>
