<?xml version="1.0" encoding="utf-8"?>
<!DOCTYPE svg PUBLIC "-//W3C//DTD SVG 1.1//EN" "http://www.w3.org/Graphics/SVG/1.1/DTD/svg11.dtd">
<svg version="1.1" id="Layer_1" xmlns="http://www.w3.org/2000/svg" xmlns:xlink="http://www.w3.org/1999/xlink" x="0px" y="0px"
	 viewBox="0 0 2048 2048" xml:space="preserve">
<g>
	<path fill="#715CA7" d="M581.334,230.744c-14.289-8.25-32.731-3.309-40.981,10.981L104.861,996.019
		c-8.25,14.289-1.5,25.981,15,25.981h1801.968c16.5,0,18.309-6.75,4.019-15L581.334,230.744z"/>
	<path fill="#715CA7" d="M119.861,1026c-16.5,0-23.25,11.691-15,25.981l435.338,754.027c8.25,14.289,21.75,14.289,30,0
		l435.338-754.027c8.25-14.289,1.5-25.981-15-25.981H119.861z"/>
	<path fill="#715CA7" d="M1055.155,1026c-16.5,0-36.75,11.691-45,25.981l-436.493,756.027c-8.25,14.289-1.5,25.981,15,25.981
		h872.985c16.5,0,36.75-11.691,45-25.981l436.492-756.027c8.25-14.289,1.5-25.981-15-25.981H1055.155z"/>
	<path fill="#715CA7" d="M1931.313,1005.536c14.289,8.25,19.231,3.309,10.981-10.981l-435.647-754.563
		c-8.25-14.289-28.5-25.981-45-25.981H590.353c-16.5,0-18.309,6.75-4.019,15L1931.313,1005.536z"/>
</g>
<path fill="#FFFFFF" d="M1261.116,1148.425c0,0,43.939-31.499,97.318-78.926l-65.797-60.744l72.06,55.147
	c23.702-21.326,48.962-45.598,72.873-71.505l-95.944-61.418l109.262,46.647c21.888-24.87,42.095-50.965,58.229-77.198l-75.272-46
	l79.062,39.707c2.591-4.397,5.072-8.796,7.412-13.191l-67.167-31.757l69.844,26.616c41.698-81.911,36.182-161.851-90.069-206.655
	c-48.624-17.256-83.911-3.563-127.452,37.884l65.558,106.049l-71.127-100.641c-25.413,25.132-53.848,59.363-89.384,102.089
	l61.386,118.365l-72.834-104.609c-26.981,32.389-57.947,69.239-94.481,110.328c-7.644,8.598-15.405,16.9-23.259,24.938
	l63.613,89.479l-69.698-83.325c-181.906,181.781-412.323,218.872-484.16,226.189c-9.597-1.073-39.215-5.867-73.201-26.079
	c-24.303-14.453-45.956-33.831-64.357-57.594c-23.071-29.798-41.077-66.624-53.514-109.456l-7.275,2.112
	c8.644,29.772,19.943,56.73,33.736,80.546c6.477,11.183,13.503,21.674,21.063,31.436c18.985,24.519,41.35,44.526,66.475,59.467
	c22.383,13.311,42.861,20.052,56.1,23.363c2.192,0.548,4.243,1.015,6.176,1.427
	C981.927,1384.678,1261.116,1148.425,1261.116,1148.425z"/>
</svg>
