<?xml version="1.0" encoding="utf-8"?>
<!DOCTYPE svg PUBLIC "-//W3C//DTD SVG 1.1//EN" "http://www.w3.org/Graphics/SVG/1.1/DTD/svg11.dtd">
<svg version="1.1" id="Layer_1" xmlns="http://www.w3.org/2000/svg" xmlns:xlink="http://www.w3.org/1999/xlink" x="0px" y="0px"
	 viewBox="0 0 2048 2048" xml:space="preserve">
<g>
	<path fill="#CB294D" d="M581.334,230.744c-14.289-8.25-32.731-3.309-40.981,10.981L104.861,996.019
		c-8.25,14.289-1.5,25.981,15,25.981h1801.968c16.5,0,18.309-6.75,4.019-15L581.334,230.744z"/>
	<path fill="#CB294D" d="M119.861,1026c-16.5,0-23.25,11.691-15,25.981l435.338,754.027c8.25,14.289,21.75,14.289,30,0
		l435.338-754.027c8.25-14.289,1.5-25.981-15-25.981H119.861z"/>
	<path fill="#CB294D" d="M1055.155,1026c-16.5,0-36.75,11.691-45,25.981l-436.493,756.027c-8.25,14.289-1.5,25.981,15,25.981
		h872.985c16.5,0,36.75-11.691,45-25.981l436.492-756.027c8.25-14.289,1.5-25.981-15-25.981H1055.155z"/>
	<path fill="#CB294D" d="M1931.313,1005.536c14.289,8.25,19.231,3.309,10.981-10.981l-435.647-754.563
		c-8.25-14.289-28.5-25.981-45-25.981H590.353c-16.5,0-18.309,6.75-4.019,15L1931.313,1005.536z"/>
</g>
<path fill="#FFFFFF" d="M1469.959,893.208c-0.758-7.497-2.721-15.077-6.822-21.9l-0.318-0.758l-204.955-311.254
	c-12.129-19.921-38.371-32.049-68.981-32.049c-6.997,0-13.811,0.675-20.262,1.948l-12.318,2.332
	c-14.035-4.194-29.377-6.532-45.633-6.532c-27.888,0-54.533,6.564-75.037,18.481c-7.346,4.27-13.768,9.159-19.189,14.529
	L848.66,589.77c-12.476-2.899-25.768-4.489-39.155-4.489c-27.888,0-54.54,6.564-75.045,18.481
	c-5.426,3.153-10.342,6.646-14.729,10.417l-86.074,16.296c-33.634,6.656-55.708,28.995-55.708,55.586v0.796l24.068,466.573
	c0.417,7.338,2.009,14.372,5.768,20.914l166.645,310.685l0.667,1.175c12.045,20.232,38.697,32.8,69.557,32.8h0.121
	c6.822-0.136,13.834-0.895,20.406-1.91h0.584l519.401-123.991c33.118-6.769,54.752-28.555,54.646-54.76l30.238-443.332
	L1469.959,893.208z M1051.233,569.704c32.572-18.837,86.142-18.837,119.495,0h-0.099c33.164,18.951,33.353,50.03,0.758,69.375
	c-32.595,19.345-86.604,19.148-119.768,0C1018.41,619.908,1018.281,588.852,1051.233,569.704z M1282.158,741.01h0.114
	c35.271,20.467,35.628,53.062,0.758,73.771c-35.036,20.368-92.1,20.368-127.364,0c-35.324-20.383-35.453-53.411-0.417-73.771
	C1189.944,720.665,1247.289,720.665,1282.158,741.01z M750.068,629.982c32.572-19.231,86.369-19.231,119.722,0h-0.326
	c33.164,18.951,33.353,50.03,0.758,69.367c-32.595,19.337-86.605,19.148-119.768,0C717.245,680.179,717.117,649.13,750.068,629.982z
	 M977.431,797.052h0.212c35.271,20.467,35.628,53.062,0.758,73.771c-35.036,20.368-92.101,20.368-127.364,0
	c-35.324-20.383-35.453-53.411-0.417-73.771C885.315,776.759,942.562,776.759,977.431,797.052z M1259.675,1122.374l-14.706,207.01
	l-202.5,14.031l31.86-105.487l105.563,34.051l-27.721-108.489l101.189-5.473l-79.055-64.827l-22.134,70.292l-77.842,74.431
	l-70.178,15.812l38.303,89.674l-0.167,0.015c-17.435,1.516-34.771-5.306-44.724-15.161c-9.854-10.355-11.37-21.725-11.37-39.16
	l3.669-78.812c0.212-24.052,24.022-56.435,55.435-87.84c31.882-32.201,71.004-51.66,92.259-52.304l62.295-0.758
	c21.172,0.644,34.695,2.176,45.322,12.803h-0.159C1255.627,1092.099,1260.971,1104.227,1259.675,1122.374z M1409.128,920.36
	l-549.677,108.822c-23.938,4.738-50.045-2.683-58.3-16.563L611.508,693.876c-8.232-13.842,4.48-28.934,28.419-33.664l56.766-10.75
	c-1.383,5.295-2.043,10.752-1.922,16.307l-0.015,52.456c0.136,23.969,14.774,46.111,40.145,60.763
	c19.463,11.244,44.368,17.696,70.568,18.369c-7.888,11.459-11.966,24.33-11.669,37.733l-0.015,55.791
	c0.144,24.787,15.357,47.733,41.729,62.962c21.596,12.477,49.628,19.345,78.918,19.345h0.083
	c29.563-0.099,56.359-6.921,77.986-19.019c26.804-15.57,40.388-38.963,40.388-64.266v-55.791c0-25.06-14.562-47.801-40.933-62.962
	c-21.588-12.655-47.832-19.446-76.508-19.686c7.027-10.626,10.795-22.455,10.795-34.763v-52.463
	c0-19.624-10.75-38.636-28.934-52.768l99.777-18.896c-0.844,4.224-1.237,8.539-1.142,12.917l-0.015,52.448
	c0.136,23.976,14.774,46.118,40.145,60.771c20.556,11.875,47.181,18.413,74.992,18.433c0.717,0.004,1.426-0.013,2.139-0.018
	c-9.919,12.471-15.113,26.866-14.784,41.932l-0.015,55.798c0.152,24.787,15.365,47.725,41.737,62.954
	c21.596,12.477,49.628,19.345,78.918,19.345h0.182c28.805-0.159,55.556-6.981,77.076-19.019
	c26.796-15.57,39.675-38.963,39.675-64.266v-55.791c0-25.06-13.803-47.801-40.175-62.962
	c-21.225-12.887-48.029-19.709-77.319-19.709c-2.716,0-5.416,0.079-8.105,0.196c8.237-11.659,12.464-25.055,12.464-38.803v-52.842
	c0-16.103-6.178-31.791-18.14-44.711c12.688,2.699,23.318,8.539,28.093,16.27l204.63,311.14
	C1445.695,900.545,1432.975,915.637,1409.128,920.36z"/>
</svg>
