<?xml version="1.0" encoding="utf-8"?>
<!DOCTYPE svg PUBLIC "-//W3C//DTD SVG 1.1//EN" "http://www.w3.org/Graphics/SVG/1.1/DTD/svg11.dtd">
<svg version="1.1" id="Layer_1" xmlns="http://www.w3.org/2000/svg" xmlns:xlink="http://www.w3.org/1999/xlink" x="0px" y="0px"
	 viewBox="0 0 2048 2048" xml:space="preserve">
<g>
	<path fill="#59595A" d="M581.334,230.744c-14.289-8.25-32.731-3.309-40.981,10.981L104.861,996.019
		c-8.25,14.289-1.5,25.981,15,25.981h1801.968c16.5,0,18.309-6.75,4.019-15L581.334,230.744z"/>
	<path fill="#59595A" d="M119.861,1026c-16.5,0-23.25,11.691-15,25.981l435.338,754.027c8.25,14.289,21.75,14.289,30,0
		l435.338-754.027c8.25-14.289,1.5-25.981-15-25.981H119.861z"/>
	<path fill="#59595A" d="M1055.155,1026c-16.5,0-36.75,11.691-45,25.981l-436.493,756.027c-8.25,14.289-1.5,25.981,15,25.981
		h872.985c16.5,0,36.75-11.691,45-25.981l436.492-756.027c8.25-14.289,1.5-25.981-15-25.981H1055.155z"/>
	<path fill="#59595A" d="M1931.313,1005.536c14.289,8.25,19.231,3.309,10.981-10.981l-435.647-754.563
		c-8.25-14.289-28.5-25.981-45-25.981H590.353c-16.5,0-18.309,6.75-4.019,15L1931.313,1005.536z"/>
</g>
<path fill="#FFFFFF" d="M1010.303,635.399c0-16.777,13.6-30.377,30.377-30.377c16.777,0,30.377,13.6,30.377,30.377
	c0,16.777-13.6,30.377-30.377,30.377C1023.903,665.776,1010.303,652.176,1010.303,635.399 M647.918,910.435
	c0.006-16.777,13.612-30.372,30.389-30.366c16.768,0.006,30.359,13.598,30.366,30.366c-0.006,16.777-13.612,30.372-30.389,30.366
	C661.515,940.794,647.924,927.203,647.918,910.435 M1372.678,911.852c0-16.777,13.6-30.377,30.377-30.377
	c16.777,0,30.377,13.6,30.377,30.377s-13.6,30.377-30.377,30.377C1386.279,942.23,1372.678,928.629,1372.678,911.852
	 M735.853,953.469c13.977-6.206,20.291-22.587,14.084-36.593l-13.478-30.475h53.004v238.912H682.527
	c-13.2-46.364-17.312-94.842-12.11-142.767L735.853,953.469z M957.573,959.344v-70.421h126.22c6.519,0,46.035,7.536,46.035,37.082
	c0,24.532-30.309,33.329-55.232,33.329L957.573,959.344z M785.25,1338.501c0.006-16.777,13.612-30.372,30.389-30.366
	c16.768,0.006,30.359,13.598,30.366,30.366c-0.006,16.777-13.612,30.372-30.389,30.366
	C798.848,1368.86,785.256,1355.269,785.25,1338.501 M1235.346,1339.918c0-16.777,13.6-30.377,30.377-30.377
	s30.377,13.6,30.377,30.377s-13.6,30.377-30.377,30.377S1235.346,1356.695,1235.346,1339.918 M1244.738,1271.032
	c-14.964-3.206-29.683,6.314-32.889,21.307l-15.247,71.154c-99.222,44.945-213.107,44.399-311.893-1.495l-15.237-71.154
	c-3.206-14.974-17.925-24.513-32.879-21.297l-62.817,13.488c-11.671-12.02-22.522-24.81-32.479-38.284h305.648
	c3.46,0,5.767-0.626,5.767-3.773v-108.118c0-3.147-2.307-3.773-5.767-3.773h-89.392v-68.534h96.683
	c8.826,0,47.188,2.522,59.454,51.557c3.841,15.081,12.276,64.136,18.042,79.843c5.747,17.613,29.146,52.798,54.079,52.798h157.809
	c-10.584,14.166-22.159,27.564-34.639,40.092L1244.738,1271.032z M1414.461,985.567c2.146,21.579,2.411,43.303,0.792,64.928h-38.372
	c-3.841,0-5.385,2.522-5.385,6.285v17.622c0,41.48-23.389,50.501-43.885,52.798c-19.518,2.199-41.158-8.171-43.826-20.115
	c-11.514-64.761-30.7-78.592-60.999-102.489c37.6-23.878,76.725-59.102,76.725-106.252c0-50.912-34.902-82.98-58.692-98.706
	c-33.378-22.001-70.333-26.409-80.302-26.409H763.669c54.86-61.304,128.403-102.809,209.239-118.088l46.778,49.075
	c10.575,11.074,28.09,11.484,39.154,0.899l52.339-50.062c107.986,20.227,201.617,86.911,256.036,182.351l-35.831,80.928
	c-6.187,14.006,0.127,30.387,14.094,36.593L1414.461,985.567z M1503.824,986.877l-1.222-12.511l36.906-34.424
	c7.506-6.998,4.701-21.082-4.897-24.659l-47.178-17.642l-3.695-12.178l29.429-40.874c6.001-8.308,0.489-21.571-9.617-23.232
	l-49.749-8.093l-5.982-11.172l20.906-45.888c4.281-9.344-3.675-21.297-13.957-20.906l-50.492,1.759l-7.975-9.676l11.601-49.182
	c2.346-9.989-7.79-20.134-17.779-17.788l-49.172,11.592l-9.696-7.975l1.769-50.492c0.391-10.223-11.572-18.209-20.896-13.967
	l-45.878,20.916l-11.172-5.991l-8.112-49.759c-1.642-10.087-14.915-15.599-23.223-9.617l-40.904,29.429l-12.159-3.685
	l-17.642-47.188c-3.577-9.617-17.671-12.383-24.65-4.916l-34.423,36.935l-12.511-1.222l-26.585-42.956
	c-5.376-8.699-19.773-8.699-25.129,0l-26.585,42.956l-12.52,1.222l-34.433-36.935c-6.979-7.467-21.072-4.701-24.65,4.916
	l-17.642,47.188l-12.168,3.685l-40.894-29.429c-8.308-6.001-21.59-0.469-23.232,9.617l-8.112,49.759l-11.172,5.991l-45.878-20.916
	c-9.324-4.261-21.287,3.743-20.897,13.967l1.759,50.492l-9.696,7.975l-49.172-11.592c-9.989-2.326-20.134,7.8-17.788,17.788
	l11.582,49.182l-7.956,9.676l-50.492-1.759c-10.184-0.293-18.209,11.562-13.967,20.906l20.916,45.888l-5.991,11.172l-49.749,8.093
	c-10.106,1.642-15.579,14.925-9.617,23.232l29.429,40.874l-3.695,12.178l-47.188,17.642c-9.578,3.577-12.383,17.661-4.897,24.659
	l36.916,34.424l-1.222,12.511l-42.946,26.585c-8.699,5.376-8.699,19.772,0,25.129l42.946,26.585l1.222,12.51l-36.916,34.433
	c-7.487,6.979-4.682,21.053,4.897,24.65l47.188,17.642l3.695,12.178l-29.429,40.884c-5.982,8.327-0.479,21.6,9.627,23.223
	l49.739,8.093l5.991,11.191l-20.916,45.869c-4.261,9.324,3.782,21.317,13.967,20.906l50.472-1.769l7.975,9.696l-11.582,49.192
	c-2.346,9.969,7.799,20.095,17.788,17.749l49.172-11.582l9.696,7.956l-1.759,50.501c-0.391,10.224,11.572,18.219,20.897,13.957
	l45.878-20.906l11.172,5.991l8.112,49.729c1.642,10.126,14.925,15.599,23.232,9.637l40.874-29.449l12.178,3.704l17.642,47.169
	c3.577,9.578,17.671,12.403,24.65,4.897l34.433-36.916l12.52,1.251l26.585,42.946c5.356,8.66,19.753,8.679,25.129,0l26.585-42.946
	l12.51-1.251l34.424,36.916c6.979,7.506,21.072,4.682,24.65-4.897l17.642-47.169l12.178-3.704l40.884,29.449
	c8.308,5.962,21.581,0.469,23.223-9.637l8.112-49.729l11.172-5.991l45.879,20.906c9.324,4.261,21.268-3.714,20.896-13.957
	l-1.759-50.502l9.686-7.956l49.172,11.582c9.989,2.346,20.124-7.78,17.779-17.749l-11.582-49.192l7.956-9.696l50.492,1.769
	c10.184,0.411,18.238-11.582,13.957-20.906l-20.906-45.869l5.982-11.191l49.749-8.093c10.126-1.622,15.619-14.895,9.617-23.223
	l-29.429-40.884l3.695-12.178l47.178-17.642c9.598-3.597,12.403-17.671,4.897-24.65l-36.906-34.433l1.222-12.51l42.946-26.585
	c8.699-5.356,8.708-19.753,0.01-25.129L1503.824,986.877z"/>
</svg>
